<svg id="Soito" xmlns="http://www.w3.org/2000/svg" viewBox="0 0 999 307"><defs><style>.cls-1{fill:#ff6b81;}.cls-2{fill:#081828;}</style></defs><path class="cls-1" d="M208.34,199.72l0-58.54a2.4,2.4,0,0,1,2.45-2.39c1.7,0,2.93.12,3.81.22a2.38,2.38,0,0,1,2.14,2.37l0,71.81a2.39,2.39,0,0,1-2.59,2.39c-6.46-.57-24-1.09-40.49,7.4A2.39,2.39,0,0,1,171,219c14-11.93,30-15.91,35.39-17A2.38,2.38,0,0,0,208.34,199.72Z"/><path class="cls-2" d="M202.34,121l0,73.47a4,4,0,0,1-2.6,3.79c-7.38,2.82-28.64,11.7-40.43,24.45a4,4,0,0,1-7-2.74l0-58.87c0-29.22,32.22-40.64,45-44A4,4,0,0,1,202.34,121Z"/><path class="cls-1" d="M91.18,199.76l0-58.54a2.4,2.4,0,0,0-2.45-2.39c-1.7,0-2.93.13-3.82.22a2.41,2.41,0,0,0-2.14,2.38l0,71.82a2.39,2.39,0,0,0,2.59,2.38c6.47-.58,24-1.11,40.5,7.36a2.39,2.39,0,0,0,2.63-3.94c-14-11.92-30-15.89-35.4-17A2.37,2.37,0,0,1,91.18,199.76Z"/><path class="cls-2" d="M97.12,121l0,73.47a4,4,0,0,0,2.61,3.79c7.38,2.81,28.64,11.68,40.44,24.42a4.05,4.05,0,0,0,7-2.75l0-58.86c0-29.23-32.25-40.63-45-44A4.05,4.05,0,0,0,97.12,121Z"/><path class="cls-1" d="M123.59,99.31h0c.26,1,.44,2,.76,2.94a14.4,14.4,0,0,0,4.46,6.36.93.93,0,0,0,1.36,0,.94.94,0,0,0-.2-1.37,12.3,12.3,0,0,1-4.39-7.46,9.37,9.37,0,0,1,7.49-10.86,10.92,10.92,0,0,1,4.41.06,1,1,0,0,0,1.16-.46,11.52,11.52,0,0,1,7.93-5.27c4.52-.82,8.22.78,11.35,4,.16.16.31.34.45.5,0,0,0,0,0,0-.79.61-1.59,1.16-2.3,1.8a18.74,18.74,0,0,0-5.42,8.78.9.9,0,0,0,.59,1.14.88.88,0,0,0,1.13-.62,20.62,20.62,0,0,1,2-4.49,13.84,13.84,0,0,1,5.34-5.18,8.34,8.34,0,0,1,3.48-.81,9.18,9.18,0,0,1,9.63,7.56,12.17,12.17,0,0,1,.19,3.66,4.11,4.11,0,0,1-1.13,2.23,13.86,13.86,0,0,1-3.47,2.81.87.87,0,0,0-.29,1.36.79.79,0,0,0,1,.28,12.17,12.17,0,0,0,5.17-4.88,5.65,5.65,0,0,0,.41-1.13c.09-.31.19-.39.47-.37a12.22,12.22,0,0,1,4.35,1.29,8.94,8.94,0,0,1,4.89,7.33,8.68,8.68,0,0,1-4.75,8.23c-.3.17-.35.44-.71.44-2.51,0-5,.07-7.53.1l-.28,0c.24-.7.42-1.37.7-2a11.07,11.07,0,0,1,2.62-3.56.91.91,0,1,0-1.2-1.37c-.12.1-.23.21-.34.32a12,12,0,0,0-3.57,6.71H167.3c-2.27,0-4.54.09-6.81.1a1.62,1.62,0,0,0-1.32.78q-3.61,4.67-7.25,9.32a1.73,1.73,0,0,1-1.6.89,1.86,1.86,0,0,1-1.29-.72c-1.47-1.87-3-3.74-4.44-5.61-1.21-1.53-2.41-3-3.61-4.59a1.37,1.37,0,0,0-1.23-.6c-.3,0-.6,0-1,0,0,0,0,0,0,0,2.29-2.3,4.17-4.75,4.86-8h0a19.57,19.57,0,0,0,12.28-1.17s0,0,0,0c.06.2.12.37.18.55a7.44,7.44,0,0,0,2.26,3.74,5.11,5.11,0,0,0,2.91,1.13.93.93,0,0,0,1-.78.86.86,0,0,0-.68-1c-2.48-.23-3.29-2-3.88-4a.77.77,0,0,1,.35-1,15.39,15.39,0,0,0,5.28-7.5.91.91,0,1,0-1.72-.56,15.83,15.83,0,0,1-2.07,4,12.46,12.46,0,0,1-8.33,5,19.13,19.13,0,0,1-7.23-.22c-.07,0-.13,0-.09-.1-.27-1-.49-2-.82-3a8.31,8.31,0,0,0-1.88-2.94.67.67,0,0,1-.15-.79,22,22,0,0,1,2.53-5.09,8.06,8.06,0,0,1,3.59-3.12.85.85,0,0,0,.48-1.15.87.87,0,0,0-1.18-.5,8.87,8.87,0,0,0-3.75,2.88,20.87,20.87,0,0,0-3.06,5.57l-.2.5s0,0,0,0l-.33-.24c-.91-.59-1.81-1.2-2.73-1.77a.91.91,0,1,0-.89,1.57,16.77,16.77,0,0,1,4.63,3.65,7,7,0,0,1,1,8A17.74,17.74,0,0,1,136,116.8a.71.71,0,0,1-.43.13c-4.63,0-9.26,0-13.88,0a4.31,4.31,0,0,1-1.67-.54,8.17,8.17,0,0,1-4.82-5.6,9.73,9.73,0,0,1,4.27-9.78A14.73,14.73,0,0,1,123.59,99.31Z"/><path class="cls-2" d="M263,216.08H255a5.62,5.62,0,0,1-5.3-7.48l32.49-92.27a5.61,5.61,0,0,1,5.29-3.74h15.2a5.61,5.61,0,0,1,5.29,3.74l32.53,92.27a5.62,5.62,0,0,1-5.29,7.48h-8.05a5.61,5.61,0,0,1-5.32-3.83l-26.36-78.44h-.81l-26.3,78.44A5.61,5.61,0,0,1,263,216.08Zm10.3-40.58h43.35a5.61,5.61,0,0,1,5.61,5.61V185a5.61,5.61,0,0,1-5.61,5.61H273.3a5.61,5.61,0,0,1-5.61-5.61v-3.84A5.61,5.61,0,0,1,273.3,175.5Z"/><path class="cls-2" d="M383.08,217.59q-11.62,0-19.94-5.1a33.84,33.84,0,0,1-12.78-14.13,46.22,46.22,0,0,1-4.47-20.79,46,46,0,0,1,4.54-20.89,34.11,34.11,0,0,1,12.86-14.15q8.32-5.09,19.69-5.08a38.66,38.66,0,0,1,16.75,3.46,28.9,28.9,0,0,1,11.64,9.75,27.14,27.14,0,0,1,3.56,7.27,5.64,5.64,0,0,1-5.33,7.41h-6.82a5.44,5.44,0,0,1-5-3.53,16.53,16.53,0,0,0-4-5.84q-4-3.76-10.59-3.77a16.61,16.61,0,0,0-9.85,3,19.5,19.5,0,0,0-6.6,8.62,34.6,34.6,0,0,0-2.35,13.44,36.16,36.16,0,0,0,2.32,13.62,19.73,19.73,0,0,0,6.55,8.74,17.75,17.75,0,0,0,17.18,1.51,14.41,14.41,0,0,0,5.38-4.47,15.43,15.43,0,0,0,2-3.67,5.52,5.52,0,0,1,5.17-3.45h6.54a5.64,5.64,0,0,1,5.34,7.39,29.11,29.11,0,0,1-3.43,7.18A28.54,28.54,0,0,1,400.05,214,38,38,0,0,1,383.08,217.59Z"/><path class="cls-2" d="M449.45,217.64A31.88,31.88,0,0,1,436.19,215a21.3,21.3,0,0,1-9.3-7.86,22.87,22.87,0,0,1-3.41-12.83,21.89,21.89,0,0,1,2.42-10.87,18.88,18.88,0,0,1,6.62-6.87,34.13,34.13,0,0,1,9.48-3.92,78,78,0,0,1,10.94-1.94q6.81-.7,11.06-1.29a16.14,16.14,0,0,0,6.19-1.82,4.25,4.25,0,0,0,1.95-3.87v-.3q0-5.7-3.39-8.84c-2.26-2.09-5.5-3.13-9.75-3.13q-6.72,0-10.64,2.93a16,16,0,0,0-3.82,4,5.52,5.52,0,0,1-5.41,2.4l-5.89-.84a5.58,5.58,0,0,1-4.1-8.31,25.79,25.79,0,0,1,3.53-4.57A29.44,29.44,0,0,1,444,139.85a44,44,0,0,1,14.86-2.4,48.76,48.76,0,0,1,11.17,1.31,31.9,31.9,0,0,1,10.15,4.32,22.31,22.31,0,0,1,7.41,8.16,26.73,26.73,0,0,1,2.8,12.89v46.34a5.61,5.61,0,0,1-5.61,5.61h-6.36a5.61,5.61,0,0,1-5.61-5.61v-5.06h-.61a22.19,22.19,0,0,1-4.67,6A22.52,22.52,0,0,1,460,216,30.17,30.17,0,0,1,449.45,217.64Zm4.75-13.44a19.67,19.67,0,0,0,9.55-2.2,15.94,15.94,0,0,0,6.24-5.84,15,15,0,0,0,2.2-7.93v-9.14a8.5,8.5,0,0,1-2.91,1.31,43.17,43.17,0,0,1-4.57,1.06c-1.68.3-3.35.57-5,.81l-4.3.61a31.36,31.36,0,0,0-7.32,1.82,12.27,12.27,0,0,0-5.11,3.51,9.79,9.79,0,0,0,1.82,13.41A16,16,0,0,0,454.2,204.2Z"/><path class="cls-2" d="M533.41,217.44a29.36,29.36,0,0,1-16.37-4.7,31.86,31.86,0,0,1-11.42-13.64q-4.2-9-4.2-21.73,0-12.93,4.27-21.86A31.53,31.53,0,0,1,517.24,142a29.82,29.82,0,0,1,16.22-4.57,24.05,24.05,0,0,1,11.22,2.3,21.71,21.71,0,0,1,7,5.5,34.73,34.73,0,0,1,4,6h.76V118.2a5.61,5.61,0,0,1,5.61-5.61h7.12a5.61,5.61,0,0,1,5.61,5.61v92.27a5.61,5.61,0,0,1-5.61,5.61h-6.77a5.61,5.61,0,0,1-5.61-5.61v-6.62h-1.11a30.71,30.71,0,0,1-4.09,6,22.3,22.3,0,0,1-7.08,5.38A24.31,24.31,0,0,1,533.41,217.44Zm5.1-15a15.68,15.68,0,0,0,9.9-3.16,19.32,19.32,0,0,0,6.22-8.82,42,42,0,0,0,0-26.27,18.85,18.85,0,0,0-6.17-8.64,17.85,17.85,0,0,0-20.19.1,19.3,19.3,0,0,0-6.16,8.79,37,37,0,0,0-2.07,12.84,37.48,37.48,0,0,0,2.09,13,19.8,19.8,0,0,0,6.22,8.94A15.82,15.82,0,0,0,538.51,202.43Z"/><path class="cls-2" d="M624.39,217.59q-11.67,0-20.14-4.88a32.59,32.59,0,0,1-13-13.84q-4.54-9-4.55-21.15a46.11,46.11,0,0,1,4.58-21,34.26,34.26,0,0,1,12.81-14.15,36.08,36.08,0,0,1,19.35-5.08,39.67,39.67,0,0,1,13.57,2.3,31.2,31.2,0,0,1,11.32,7.1,33.28,33.28,0,0,1,7.75,12.2,49.27,49.27,0,0,1,2.83,17.61h0a5.61,5.61,0,0,1-5.61,5.61h-52.4a5.61,5.61,0,0,1-5.61-5.61v-1.11a5.61,5.61,0,0,1,5.61-5.61h33.78a5.6,5.6,0,0,0,5.25-7.62,16.45,16.45,0,0,0-.83-1.75,16.61,16.61,0,0,0-6.19-6.5,17.62,17.62,0,0,0-9.22-2.37,18,18,0,0,0-9.85,2.7,19,19,0,0,0-6.6,7.07,20.52,20.52,0,0,0-2.4,9.58v10.76a25.15,25.15,0,0,0,2.48,11.6,17.47,17.47,0,0,0,6.92,7.38,20.59,20.59,0,0,0,10.41,2.55,21.68,21.68,0,0,0,7.23-1.14,15.62,15.62,0,0,0,5.61-3.36,13.68,13.68,0,0,0,2.12-2.55,5.58,5.58,0,0,1,5.32-2.52l5.94.67a5.61,5.61,0,0,1,4.26,8.38,26.51,26.51,0,0,1-3.12,4.23,29.84,29.84,0,0,1-11.54,7.79A43.94,43.94,0,0,1,624.39,217.59Z"/><path class="cls-2" d="M670.09,210.47v-66.4a5.61,5.61,0,0,1,5.61-5.61H682a5.61,5.61,0,0,1,5.61,5.61v7.58h.91a20.67,20.67,0,0,1,8-10.44,23.45,23.45,0,0,1,13.39-3.76,22.61,22.61,0,0,1,13.32,3.81,20.28,20.28,0,0,1,7.65,10.39h.81a21.38,21.38,0,0,1,8.72-10.34A26.84,26.84,0,0,1,755,137.45q10.71,0,17.48,6.77T779.24,164v46.49a5.61,5.61,0,0,1-5.61,5.61h-7.12a5.61,5.61,0,0,1-5.61-5.61V166.81q0-7.23-3.84-10.59a13.78,13.78,0,0,0-9.4-3.36q-6.61,0-10.33,4.12a15.33,15.33,0,0,0-3.72,10.69v42.8a5.61,5.61,0,0,1-5.61,5.61h-6.72a5.62,5.62,0,0,1-5.61-5.61V166.05a12.37,12.37,0,0,0-13-13.19,13.42,13.42,0,0,0-7.18,2,14.31,14.31,0,0,0-5.15,5.6,17.73,17.73,0,0,0-1.92,8.42v41.59a5.62,5.62,0,0,1-5.61,5.61H675.7A5.62,5.62,0,0,1,670.09,210.47Z"/><path class="cls-1" d="M813.12,118.2v92.27a5.61,5.61,0,0,1-5.61,5.61H800a5.62,5.62,0,0,1-5.61-5.61V118.2a5.61,5.61,0,0,1,5.61-5.61h7.53A5.61,5.61,0,0,1,813.12,118.2Z"/><path class="cls-1" d="M838.47,216.08h-8.05a5.61,5.61,0,0,1-5.29-7.48l32.48-92.27a5.61,5.61,0,0,1,5.29-3.74h15.2a5.61,5.61,0,0,1,5.29,3.74l32.53,92.27a5.61,5.61,0,0,1-5.29,7.48h-8a5.61,5.61,0,0,1-5.32-3.83l-26.35-78.44h-.81l-26.31,78.44A5.61,5.61,0,0,1,838.47,216.08Zm10.31-40.58h43.35a5.61,5.61,0,0,1,5.61,5.61V185a5.61,5.61,0,0,1-5.61,5.61H848.78a5.61,5.61,0,0,1-5.61-5.61v-3.84A5.61,5.61,0,0,1,848.78,175.5Z"/></svg>